# xmcd
#
# Track frame offsets:
#	150
#	13292
#	26543
#	38873
#	49492
#	61806
#	74061
#	87065
#	98953
#	121063
#
# Disc length: 1749
#
# Revision: 1
# Processed by: cddbd v1.5.1PL0 Copyright (c) Steve Scherf et al.
# Submitted via: CDex 1.51
# Normalized: r0:DSETVAR1,TDELIM( - )
#
DISCID=8606d30a
DTITLE=Various Artist - Risque Blues - Keep On Churnin'
DYEAR=2004
DGENRE=Blues
TTITLE0=Keep On Churnin' - Wynonie Harris
TTITLE1=Drill, Daddy, Drill - Dorothy Ellis
TTITLE2=Rockin' At Midnight - Roy Brown
TTITLE3=Turn The Lamps Down Low - Little Esther
TTITLE4=Rocket 69 - Todd Rhodes
TTITLE5=The Coffee Grind - Hank Ballard
TTITLE6=Chocolate Porkchop Man - Pete 'Guitar' Lewis
TTITLE7=Silent George - Lucky Millinder
TTITLE8=She Put The Whammy On Me - Freddy King
TTITLE9=Need Your Love So Bad - Little Willie John
EXTD=YEAR: 2004
EXTT0=
EXTT1=
EXTT2=
EXTT3=
EXTT4=
EXTT5=
EXTT6=
EXTT7=
EXTT8=
EXTT9=
PLAYORDER=
